<svg width="120" height="120" viewBox="0 0 120 120" fill="none" xmlns="http://www.w3.org/2000/svg">
<rect width="120" height="120" fill="#356875"/>
<path d="M39.2818 59.5736C46.4133 60.0262 53.5448 60.3935 58.1511 60.3935C62.7575 60.3935 69.889 60.0327 77.0205 59.5736L77.4712 48.8746C71.4001 48.7894 64.6663 48.75 58.1511 48.75C51.636 48.75 44.8955 48.7894 38.8311 48.8746L39.2818 59.5736Z" fill="white"/>
<path d="M15.2901 57.7778C15.4757 57.7909 26.6104 58.7421 38.1031 59.4964L37.659 48.8828C27.5185 49.0271 19.4789 49.2895 17.9214 49.6569C15.3829 50.2538 15.0316 52.2283 15.0051 53.5402C14.9919 54.1634 14.9919 55.8558 15.1642 57.7581L15.2901 57.7778Z" fill="white"/>
<path d="M78.1943 59.495C89.6869 58.7472 100.822 57.7961 101.007 57.7764L101.14 57.7633C101.312 55.8675 101.312 54.1751 101.292 53.5519C101.266 52.24 100.915 50.2655 98.3757 49.6686C96.8117 49.3012 88.7792 49.0388 78.6384 48.8945L78.1943 59.495Z" fill="white"/>
<path d="M78.1206 60.6627L77.1729 71.7224C82.9987 70.699 88.2681 69.6036 90.4416 69.0329C95.2336 67.7734 98.1767 66.4025 99.7407 63.6605C100.41 62.4863 100.795 60.6955 101.02 58.9375C99.9197 59.0359 89.1758 59.9412 78.1206 60.6627Z" fill="white"/>
<path d="M76.942 60.7422C69.837 61.1948 62.7452 61.5556 58.1522 61.5556C53.559 61.5556 46.4673 61.1948 39.3623 60.7422L40.3233 71.9331C47.024 73.0876 54.2152 74.0977 58.1522 74.0977C62.0891 74.0977 69.2802 73.0876 75.981 71.9331L76.942 60.7422Z" fill="white"/>
<path d="M38.1756 60.6601C27.1204 59.9385 16.3768 59.0332 15.2832 58.9414C15.5019 60.6994 15.893 62.4902 16.5624 63.6644C18.1199 66.4063 21.0693 67.7774 25.8612 69.0368C28.0351 69.6075 33.3042 70.6964 39.1301 71.7263L38.1756 60.6601Z" fill="white"/>
</svg>
