<svg width="34" height="34" viewBox="0 0 34 34" fill="none" xmlns="http://www.w3.org/2000/svg">
<rect width="34" height="34" fill="#356875"/>
<g clip-path="url(#clip0_4150_485)">
<path d="M19.1713 4.00097C19.3199 4.12037 19.4929 4.22029 19.6099 4.36406C19.7732 4.56145 19.8122 4.81245 19.7074 5.0537C19.6099 5.28033 19.6757 5.40949 19.8853 5.51427C20.0364 5.58982 20.1753 5.6946 20.3166 5.78964C20.9551 6.21853 21.1671 6.92036 20.8625 7.62705C20.6042 8.22409 20.3385 8.81382 20.0656 9.40354C20.012 9.52295 20.0364 9.59606 20.0973 9.70815C20.2703 10.0249 20.436 10.3539 20.553 10.6951C20.609 10.8535 20.6773 10.929 20.821 10.99C22.4343 11.665 23.7575 12.7104 24.7761 14.1335C24.8468 14.2334 24.9248 14.3821 24.9004 14.482C24.8687 14.6014 24.742 14.7549 24.6348 14.7744C24.5129 14.7988 24.3302 14.7257 24.24 14.6307C24.0158 14.3967 23.8428 14.1165 23.6259 13.8752C22.2539 12.3497 20.553 11.4262 18.5231 11.1191C14.5485 10.5172 10.6739 12.7762 9.23853 16.6703C8.44411 18.8294 8.17118 21.0275 8.40756 23.3035C8.47335 23.9298 8.28815 24.4927 7.87875 24.9752C7.64725 25.2482 7.406 25.5113 7.16474 25.7794C6.73585 26.2546 6.62619 26.8005 6.87963 27.3829C7.13794 27.9799 7.63506 28.2602 8.2784 28.2626C9.80876 28.2675 11.3367 28.2626 12.8671 28.2626C12.9402 28.2626 13.0157 28.2553 13.0864 28.2675C13.2813 28.304 13.3885 28.4356 13.391 28.6233C13.3934 28.8109 13.2838 28.9449 13.0937 28.9863C13.0303 29.001 12.9645 28.9912 12.8987 28.9912C11.3537 28.9912 9.80633 28.9912 8.26134 28.9912C7.31583 28.9912 6.61401 28.5648 6.2168 27.7119C5.82446 26.8687 5.96336 26.0645 6.55065 25.3456C6.70417 25.158 6.8577 24.963 7.03803 24.7998C7.61557 24.2856 7.69355 23.6496 7.63263 22.9161C7.37919 19.8602 7.92993 16.9725 9.59188 14.3602C10.5837 12.803 11.9898 11.7015 13.6907 10.99C13.8491 10.9242 13.9271 10.8486 13.9685 10.6732C14.1367 9.9494 14.5583 9.4011 15.204 8.99414C15.1163 8.78701 15.0261 8.58231 14.9408 8.37518C14.8409 8.13149 14.9067 7.9341 15.1114 7.83906C15.3113 7.74646 15.5062 7.83662 15.6207 8.07544C15.6963 8.23627 15.7548 8.40686 15.8425 8.56282C15.8742 8.6213 15.9692 8.67979 16.0326 8.67979C16.5516 8.67248 17.0707 8.64567 17.5897 8.6408C17.7481 8.6408 17.8091 8.58718 17.8554 8.43853C18.2111 7.2932 18.5767 6.1503 18.9373 5.00496C18.9617 4.92942 18.9763 4.85144 19.0056 4.73203C18.7278 4.73203 18.4792 4.72229 18.2331 4.73934C18.1722 4.74422 18.1039 4.82707 18.0601 4.89043C17.7871 5.27302 17.5191 5.66292 17.2486 6.04795C16.944 6.47928 16.5126 6.56944 16.0594 6.30139C16.0179 6.27702 15.9741 6.25265 15.9327 6.22584C15.4477 5.92854 15.4502 5.93098 15.0188 6.29651C14.9189 6.3818 14.8945 6.45491 14.9603 6.56457C14.9896 6.61331 15.0066 6.66692 15.0261 6.72053C15.109 6.95204 15.0334 7.13968 14.8263 7.22253C14.6338 7.30051 14.4535 7.22253 14.3462 7.01296C14.0392 6.42079 14.1147 6.06501 14.6362 5.65805C14.7313 5.58251 14.8263 5.50696 14.9238 5.43142C15.2698 5.16336 15.5793 5.14387 15.9595 5.36806C16.1544 5.48259 16.3469 5.602 16.5614 5.73116C16.8441 5.32663 17.1048 4.92455 17.3997 4.54927C17.5654 4.33969 17.792 4.17886 17.9918 3.99609C18.3817 3.99609 18.7741 3.99609 19.164 3.99609L19.1713 4.00097ZM14.763 10.6195C15.6256 10.3905 16.4444 10.2491 17.2729 10.293C18.0942 10.3344 18.913 10.4465 19.7269 10.5294C19.471 9.93966 19.0031 9.5132 18.3208 9.43278C17.6945 9.35968 17.0536 9.35968 16.4225 9.39867C15.6549 9.44497 15.1114 9.86168 14.763 10.622V10.6195ZM19.393 6.07719C19.1128 6.96666 18.8399 7.82444 18.5718 8.67735C18.8642 8.79919 19.1323 8.91129 19.4271 9.03313C19.6952 8.41904 19.9828 7.80251 20.2289 7.17379C20.3239 6.92767 20.2289 6.66692 20.0144 6.49634C19.8268 6.34769 19.6148 6.22584 19.393 6.07719Z" fill="white"/>
<path d="M20.4654 28.9989C18.5134 28.9989 16.5615 28.9989 14.6071 28.9989C14.534 28.9989 14.4584 29.0062 14.3878 28.9941C14.1806 28.9575 14.0734 28.8259 14.0783 28.6212C14.0832 28.4287 14.1928 28.302 14.3878 28.2703C14.4682 28.2581 14.551 28.2654 14.6315 28.2654C18.4866 28.2654 22.3442 28.2654 26.1993 28.2654C26.9889 28.2654 27.5616 27.8487 27.7346 27.1372C27.8516 26.6571 27.7419 26.2184 27.4178 25.8407C27.2058 25.5946 26.9913 25.3509 26.7696 25.1121C26.2505 24.5541 26.0629 23.9058 26.1409 23.1431C26.3894 20.6697 26.0385 18.2864 25.0126 16.0103C24.8518 15.657 24.8859 15.4425 25.1125 15.3378C25.3416 15.233 25.5292 15.3499 25.6876 15.7009C26.7403 18.033 27.1424 20.4747 26.889 23.0164C26.8183 23.7206 26.9523 24.3177 27.4909 24.8026C27.659 24.9537 27.8004 25.1365 27.949 25.3095C28.5046 25.9601 28.6825 26.6985 28.4023 27.5124C28.1196 28.3361 27.5201 28.8137 26.6672 28.9746C26.5332 28.9989 26.3919 28.9965 26.2554 28.9965C24.3278 28.9965 22.4002 28.9965 20.4727 28.9965L20.4654 28.9989Z" fill="white"/>
<path d="M14.3975 19.6284C14.4413 19.0387 14.4218 18.4368 14.5437 17.8617C14.8312 16.5165 16.074 15.6417 17.4899 15.7197C18.7595 15.7879 19.9097 16.8284 20.0413 18.1273C20.1509 19.2166 20.2167 20.3254 19.9925 21.4049C19.7172 22.733 18.4622 23.6395 17.1316 23.5689C15.7816 23.4958 14.6558 22.482 14.4901 21.1393C14.4291 20.6446 14.4803 20.1353 14.4803 19.6309C14.4535 19.6309 14.4267 19.6309 14.3999 19.6284H14.3975ZM19.3809 19.6601C19.3638 19.6601 19.3443 19.6601 19.3273 19.6601C19.3273 19.2142 19.3516 18.7658 19.3224 18.3198C19.2566 17.2915 18.3233 16.4556 17.2681 16.4556C16.2154 16.4556 15.265 17.2915 15.2163 18.3198C15.1748 19.1874 15.1773 20.0598 15.2138 20.9273C15.2552 21.8923 16.0716 22.7062 16.9879 22.8061C18.2087 22.9402 19.0885 22.1409 19.259 21.2855C19.3663 20.7591 19.3443 20.206 19.3809 19.6625V19.6601Z" fill="white"/>
<path d="M11.5565 20.7233C11.4444 20.8573 11.3347 20.9962 11.2178 21.1278C11.0594 21.3081 10.84 21.3398 10.6792 21.2131C10.5013 21.0718 10.4843 20.8598 10.65 20.6526C10.9814 20.2408 11.3152 19.8314 11.654 19.4269C11.8416 19.2027 12.0877 19.2002 12.2778 19.4269C12.619 19.8314 12.9528 20.2408 13.2842 20.6526C13.4499 20.8573 13.4329 21.0742 13.255 21.2131C13.0869 21.3447 12.8651 21.3033 12.6994 21.1108C12.5922 20.984 12.4874 20.8525 12.3363 20.6697C12.3363 21.14 12.3314 21.5421 12.3363 21.9442C12.3436 22.3901 12.3217 22.8409 12.385 23.282C12.4947 24.0521 13.1453 24.6126 13.9276 24.6662C14.1372 24.6808 14.3516 24.671 14.5612 24.6881C14.7756 24.7027 14.9072 24.8221 14.9218 25.0439C14.934 25.2388 14.7975 25.4094 14.588 25.4265C13.5986 25.4972 12.5824 25.29 11.9245 24.1812C11.7149 23.8254 11.6052 23.438 11.6052 23.0213C11.6052 22.2658 11.6052 21.508 11.6052 20.7525C11.5906 20.7428 11.5735 20.7355 11.5589 20.7257L11.5565 20.7233Z" fill="white"/>
<path d="M22.9286 18.6181C23.0919 18.4208 23.2015 18.2794 23.3185 18.1454C23.4745 17.9675 23.6987 17.9431 23.8595 18.0772C24.0228 18.2161 24.052 18.4135 23.9034 18.5987C23.5598 19.0324 23.2088 19.4589 22.8506 19.8805C22.6825 20.0754 22.4461 20.0754 22.2804 19.8805C21.9222 19.4589 21.5713 19.0324 21.2277 18.5987C21.0814 18.4135 21.1082 18.2161 21.2691 18.0772C21.4299 17.9407 21.6492 17.9651 21.8101 18.143C21.9295 18.2745 22.0391 18.4159 22.178 18.584C22.1878 18.4914 22.1975 18.4305 22.1975 18.372C22.1975 17.7043 22.2 17.039 22.1975 16.3713C22.1927 15.3698 21.4762 14.6338 20.4747 14.5949C20.3041 14.5875 20.1335 14.5973 19.9629 14.59C19.7533 14.5802 19.6315 14.456 19.6169 14.2513C19.5998 14.0417 19.7168 13.9052 19.9142 13.8638C21.001 13.6396 22.2146 14.2293 22.6776 15.2455C22.8214 15.5623 22.9042 15.9278 22.9213 16.2739C22.9578 17.0269 22.9335 17.7823 22.9335 18.6133L22.9286 18.6181Z" fill="white"/>
</g>
<defs>
<clipPath id="clip0_4150_485">
<rect width="22.5266" height="25" fill="white" transform="translate(6 4)"/>
</clipPath>
</defs>
</svg>
