<svg width="34" height="34" viewBox="0 0 34 34" fill="none" xmlns="http://www.w3.org/2000/svg">
<rect width="34" height="34" fill="#356875"/>
<g clip-path="url(#clip0_4150_493)">
<path d="M20.0335 4C20.2466 4.15828 20.4836 4.29103 20.6695 4.47655C23.0396 6.83035 25.4012 9.19266 27.7662 11.5516C28.3067 12.0911 28.3067 12.5676 27.7662 13.1089C27.1728 13.7011 26.576 14.2934 25.986 14.8891C25.8292 15.0474 25.6586 15.107 25.4609 14.9895C25.2341 14.8551 25.2307 14.5913 25.4523 14.3683C26.0491 13.7675 26.651 13.1701 27.2495 12.571C27.4797 12.3413 27.4797 12.3209 27.2427 12.0843C24.8555 9.70155 22.4684 7.31881 20.0812 4.93607C20.0301 4.88502 19.9806 4.82885 19.921 4.7863C19.7794 4.68419 19.6925 4.75397 19.6481 4.89182C19.6294 4.95139 19.643 5.02117 19.643 5.08585C19.643 6.46103 19.643 7.8362 19.643 9.21308C19.643 9.68623 19.5441 9.78664 19.0701 9.78664C15.5797 9.78664 12.0894 9.78664 8.59903 9.78664C8.51719 9.78664 8.43534 9.79175 8.3552 9.78664C8.13013 9.76792 8.03294 9.85132 8.03976 10.0947C8.0551 10.721 8.04487 11.3473 8.04487 11.9754C8.04487 12.8382 8.04487 13.7011 8.04487 14.564C8.04487 14.8483 8.07897 14.8823 8.37055 14.8823C8.9895 14.8823 9.61016 14.8908 10.2291 14.8755C10.3502 14.8721 10.4968 14.8074 10.5838 14.724C11.2897 14.0364 11.9803 13.3318 12.6828 12.6408C13.1977 12.1336 14.0093 12.3106 14.2225 12.9744C14.2668 13.1106 14.2685 13.262 14.2702 13.4067C14.277 13.8713 14.2753 14.3343 14.277 14.7989C14.277 14.8142 14.2873 14.8295 14.306 14.884H14.5737C16.0742 14.884 17.5747 14.884 19.0752 14.884C19.5492 14.884 19.6413 14.9776 19.6413 15.4576C19.6413 16.8242 19.6413 18.1926 19.6413 19.5593C19.6413 19.6239 19.6345 19.6903 19.6447 19.755C19.6703 19.9184 19.7948 19.9711 19.9261 19.8741C19.9909 19.8265 20.0454 19.7635 20.1034 19.7073C21.4129 18.4002 22.7207 17.0948 24.0303 15.7877C24.0882 15.7299 24.1428 15.6703 24.2059 15.6175C24.3781 15.4729 24.593 15.478 24.7345 15.6226C24.8726 15.7656 24.8743 15.9903 24.7191 16.1485C24.39 16.4872 24.0541 16.8191 23.7165 17.151C23.6534 17.2123 23.575 17.2599 23.5034 17.3127C23.5153 17.3331 23.5256 17.3518 23.5375 17.3723C23.6057 17.3774 23.6722 17.3876 23.7404 17.3876C24.1479 17.3876 24.5554 17.3842 24.963 17.3893C25.454 17.3961 25.824 17.7484 25.8667 18.2385C25.8735 18.3117 25.8735 18.3849 25.8735 18.4581C25.8735 19.9388 25.8735 21.4212 25.8735 22.9019C25.8735 23.6286 25.5205 23.9741 24.7907 23.9741C21.3908 23.9741 17.9891 23.9741 14.5891 23.9741H14.2719C14.2719 24.0933 14.2719 24.1886 14.2719 24.2839C14.2719 25.5297 14.2753 26.7738 14.2702 28.0197C14.2668 28.646 13.8712 29.0562 13.2898 28.9983C13.0869 28.9779 12.8533 28.8758 12.7101 28.7345C11.3664 27.4172 10.0381 26.0829 8.70816 24.7519C8.5206 24.563 8.51037 24.3486 8.66724 24.1903C8.83434 24.0218 9.05089 24.0405 9.26402 24.255C10.5343 25.5195 11.7995 26.7892 13.0732 28.0503C13.1653 28.1422 13.3068 28.1848 13.4245 28.2511C13.4586 28.1184 13.5234 27.9856 13.5234 27.8529C13.5302 26.51 13.5285 25.1672 13.5285 23.8244C13.5285 23.3087 13.6155 23.2236 14.1475 23.2236C17.6532 23.2236 21.1606 23.2236 24.6663 23.2236C24.7396 23.2236 24.8129 23.2219 24.8862 23.2236C25.0619 23.2287 25.1318 23.147 25.1284 22.97C25.1215 22.4168 25.1267 21.8637 25.1267 21.3089C25.1267 20.3558 25.1267 19.4044 25.1267 18.4513C25.1267 18.1637 25.0926 18.1296 24.8027 18.1296C24.1752 18.1296 23.546 18.1228 22.9185 18.1347C22.8111 18.1364 22.6815 18.1926 22.6048 18.2692C21.8887 18.9704 21.1861 19.6852 20.4717 20.3864C19.9926 20.8562 19.215 20.7132 18.9712 20.1107C18.9132 19.966 18.903 19.7941 18.8996 19.6341C18.8911 19.1474 18.8962 18.6589 18.8962 18.1296C18.5671 18.1296 18.2517 18.1296 17.9379 18.1296C17.5406 18.1296 17.365 18.0156 17.3667 17.7603C17.3667 17.5067 17.5492 17.3893 17.9396 17.3893C18.2482 17.3893 18.5569 17.3893 18.8808 17.3893V15.638H14.2873V17.3893C14.8142 17.3893 15.3342 17.3893 15.8526 17.3893C15.9344 17.3893 16.018 17.3791 16.0964 17.3944C16.2942 17.4352 16.4153 17.5527 16.4101 17.7671C16.405 17.9781 16.2891 18.116 16.0828 18.1194C15.341 18.1296 14.5993 18.1296 13.8576 18.1194C13.6359 18.116 13.5285 17.9543 13.5268 17.6888C13.5251 17.0863 13.5268 16.4838 13.5268 15.8813C13.5268 15.0508 13.5302 14.2202 13.5217 13.3914C13.5217 13.2944 13.4467 13.1974 13.4074 13.0986C13.3188 13.1429 13.2114 13.1701 13.1449 13.2365C10.7253 15.6448 8.31087 18.0581 5.89132 20.4664C5.72081 20.6366 5.73786 20.7472 5.89984 20.9055C6.56313 21.5557 7.21789 22.2143 7.87436 22.8713C7.93233 22.9291 7.99542 22.9836 8.03635 23.0517C8.13524 23.2151 8.13183 23.3801 7.99201 23.5197C7.85219 23.6576 7.69021 23.6729 7.52481 23.5623C7.46513 23.5214 7.41398 23.4669 7.36283 23.4159C6.69442 22.7487 6.02432 22.0816 5.35591 21.4127C4.87678 20.9327 4.87848 20.4273 5.36273 19.9439C6.72341 18.5857 8.08409 17.2276 9.44647 15.8694C9.50956 15.8065 9.58288 15.7537 9.65108 15.6958C9.64426 15.6737 9.63744 15.6499 9.63062 15.6277C9.5573 15.6277 9.48398 15.6277 9.41237 15.6277C9.04577 15.6277 8.67917 15.6277 8.31087 15.6277C7.66293 15.6277 7.29633 15.2686 7.29462 14.6168C7.29121 13.4612 7.29462 12.3055 7.29462 11.1499C7.29462 10.784 7.29121 10.4181 7.29462 10.0504C7.30144 9.4037 7.66804 9.04289 8.31769 9.04289C11.7262 9.04289 15.1347 9.04289 18.5432 9.04289C18.6489 9.04289 18.7547 9.04289 18.8962 9.04289V8.76887C18.8962 7.56389 18.9115 6.35891 18.8894 5.15563C18.8808 4.59398 19.0616 4.20083 19.5936 4C19.7402 4 19.8869 4 20.0335 4Z" fill="white"/>
</g>
<defs>
<clipPath id="clip0_4150_493">
<rect width="23.1707" height="25" fill="white" transform="translate(5 4)"/>
</clipPath>
</defs>
</svg>
