<svg width="34" height="34" viewBox="0 0 34 34" fill="none" xmlns="http://www.w3.org/2000/svg">
<rect width="34" height="34" fill="#356875"/>
<g clip-path="url(#clip0_4150_497)">
<path d="M23.7203 3.99866C23.7408 4.01147 23.7587 4.03198 23.7792 4.03967C24.3714 4.24986 24.6661 4.64205 24.679 5.25981C24.6892 5.78016 24.6841 6.30051 24.679 6.82087C24.679 7.12077 24.5328 7.29252 24.2996 7.28995C24.0689 7.28995 23.9253 7.11308 23.9253 6.81574C23.9228 6.31077 23.9253 5.80579 23.9253 5.30338C23.9253 4.90094 23.7536 4.73176 23.3409 4.73176C19.2883 4.73176 15.2357 4.73176 11.1831 4.72664C10.9883 4.72664 10.937 4.78559 10.937 4.97528C10.9447 6.14671 10.9114 7.32071 10.9498 8.48958C10.9806 9.48159 10.327 9.96605 9.49901 9.94811C8.26349 9.91991 7.02541 9.94042 5.74888 9.94042C5.74888 10.0455 5.74888 10.1378 5.74888 10.2301C5.74888 12.1833 5.74888 14.1366 5.74888 16.0872C5.74888 16.1616 5.75401 16.2334 5.74888 16.3077C5.73094 16.523 5.56432 16.6845 5.36951 16.6794C5.17982 16.6742 5.03115 16.5256 5.01321 16.3154C5.00808 16.2513 5.00808 16.1847 5.00808 16.1206C5.00808 14.1519 5.01577 12.1833 5.00296 10.2121C5.00039 9.65589 5.18495 9.21244 5.5797 8.82281C6.92288 7.49758 8.2558 6.15953 9.58616 4.82148C9.92452 4.48056 10.2552 4.1422 10.732 3.99609C15.0614 3.99609 19.3908 3.99609 23.7203 3.99609V3.99866ZM6.35895 9.17655C6.41534 9.17911 6.47173 9.18424 6.52556 9.18424C7.55858 9.18424 8.58903 9.18424 9.62205 9.18424C10.0399 9.18424 10.1962 9.02532 10.1962 8.61262C10.1962 7.58986 10.1962 6.56453 10.1962 5.54177C10.1962 5.47256 10.1911 5.40335 10.1885 5.34952C8.91201 6.62605 7.64061 7.89746 6.35895 9.17911V9.17655Z" fill="white"/>
<path d="M20.736 28.2663C20.6284 28.0637 20.5412 27.8997 20.4489 27.7254C20.1131 27.8279 19.785 27.9202 19.4646 28.0253C19.1955 28.1125 18.9648 28.0586 18.7777 27.8536C18.588 27.6459 18.5726 27.4101 18.6803 27.1512C18.9725 26.4566 19.2519 25.7542 19.5518 25.0621C19.6364 24.8647 19.6082 24.7648 19.4057 24.7007C18.8571 24.5264 18.5675 24.1547 18.5316 23.5728C18.5239 23.437 18.4316 23.278 18.3265 23.1832C17.9215 22.809 17.778 22.3834 17.942 21.8426C17.9856 21.699 17.9548 21.5017 17.8882 21.3607C17.6575 20.8788 17.6985 20.4456 18.0164 20.0124C18.1086 19.8893 18.1625 19.6997 18.1522 19.5459C18.1138 18.9819 18.3137 18.5718 18.8135 18.2924C18.9186 18.2334 19.0109 18.0925 19.0442 17.9745C19.1929 17.4311 19.521 17.1107 20.0824 17.0107C20.2259 16.9851 20.3874 16.8826 20.4746 16.7672C20.8104 16.3186 21.2359 16.17 21.7819 16.2674C21.9177 16.293 22.0972 16.2648 22.2099 16.1905C22.6893 15.8829 23.1507 15.8803 23.6223 16.1956C23.7043 16.252 23.8069 16.2776 23.9325 16.334V15.9982C23.9325 13.622 23.9325 11.2458 23.9325 8.87222C23.9325 8.80813 23.9299 8.74149 23.9325 8.67741C23.9453 8.43902 24.094 8.26984 24.2965 8.26215C24.5041 8.2519 24.6682 8.4262 24.6861 8.67741C24.6912 8.74918 24.6861 8.82351 24.6861 8.89785C24.6861 11.2561 24.6861 13.6169 24.6835 15.9752C24.6835 16.17 24.7066 16.2981 24.9168 16.3853C25.0706 16.4494 25.2116 16.5929 25.3141 16.7339C25.4397 16.9056 25.5833 17.003 25.7883 17.0338C26.3087 17.1158 26.6163 17.4234 26.7675 17.9284C26.8136 18.0822 26.9393 18.2411 27.0751 18.3308C27.5263 18.6231 27.7082 19.0178 27.68 19.5484C27.6724 19.7073 27.7288 19.9022 27.821 20.0329C28.1235 20.461 28.1773 20.8967 27.9313 21.3581C27.8364 21.5376 27.821 21.699 27.8851 21.8913C28.0466 22.3911 27.9056 22.809 27.5237 23.1678C27.4109 23.2729 27.3135 23.4447 27.3007 23.5959C27.252 24.1291 26.9854 24.511 26.4779 24.6956C26.2745 24.769 26.2147 24.9066 26.2984 25.1082C26.5701 25.767 26.8418 26.4284 27.1187 27.0871C27.234 27.3614 27.2648 27.6229 27.052 27.8612C26.8316 28.1073 26.565 28.1099 26.2702 28.0099C25.9806 27.91 25.6832 27.8279 25.3782 27.7356C25.2167 28.0407 25.0578 28.3303 24.904 28.6251C24.7656 28.8891 24.5579 29.0096 24.2555 29.0096C18.306 29.007 12.3591 29.0096 6.40967 29.007C5.65349 29.007 5.0588 28.4406 5.02035 27.6895C5.00497 27.3896 5.01266 27.0871 5.01266 26.7872C5.01266 23.9471 5.01266 21.1069 5.01266 18.2693C5.01266 18.1796 5.01266 18.0899 5.02035 18.0002C5.04086 17.79 5.16646 17.6772 5.37153 17.6695C5.58172 17.6618 5.70476 17.7849 5.74834 17.9822C5.76628 18.0591 5.75603 18.1437 5.75603 18.2258C5.75603 21.3171 5.75603 24.4085 5.75603 27.4998C5.75603 28.0202 6.01236 28.2765 6.53784 28.2765C11.2082 28.2765 15.8786 28.2765 20.5515 28.2765C20.6002 28.2765 20.6489 28.2765 20.7463 28.2765L20.736 28.2663ZM24.9065 24.9929C25.1757 25.0467 25.3551 24.8929 25.4782 24.6084C25.6089 24.3008 25.8524 24.0983 26.1728 24.0035C26.4266 23.9291 26.5496 23.7651 26.5522 23.5036C26.5548 23.1473 26.7034 22.8577 26.9777 22.6372C27.193 22.4655 27.2366 22.2707 27.1469 22.0143C27.0392 21.7016 27.052 21.3838 27.2238 21.0967C27.3776 20.8429 27.3571 20.6353 27.1648 20.4123C26.9341 20.1457 26.8521 19.8253 26.9162 19.4792C26.9598 19.2459 26.8829 19.0793 26.6804 18.9717C26.3369 18.7871 26.119 18.5103 26.0395 18.1283C25.9908 17.9028 25.8575 17.7849 25.6217 17.7541C25.2475 17.708 24.9476 17.5337 24.7425 17.2056C24.6194 17.0082 24.44 16.9415 24.217 16.9979C23.8376 17.0928 23.4942 17.0312 23.1789 16.8031C23.0097 16.6801 22.8328 16.6647 22.6611 16.7903C22.3304 17.0312 21.9741 17.0979 21.5768 16.9954C21.3794 16.9441 21.2051 17.0056 21.0923 17.1876C20.8796 17.5285 20.5669 17.7131 20.1747 17.7592C19.9593 17.7849 19.8286 17.9028 19.7876 18.1053C19.703 18.5077 19.4826 18.7948 19.1211 18.9845C18.934 19.0819 18.8571 19.2511 18.8981 19.4561C18.975 19.8355 18.8751 20.1636 18.629 20.4533C18.4649 20.6455 18.4496 20.8403 18.5777 21.0556C18.752 21.3504 18.8007 21.6683 18.6854 21.9938C18.5854 22.2681 18.6316 22.4732 18.8674 22.6577C19.1365 22.8705 19.2749 23.1627 19.2775 23.5062C19.2775 23.7753 19.4057 23.9266 19.6543 24.0035C19.9927 24.1086 20.2362 24.3264 20.3695 24.652C20.4746 24.9057 20.6489 25.016 20.9206 24.9929C21.2743 24.9647 21.5768 25.0877 21.8203 25.3441C22.0023 25.5338 22.1946 25.5696 22.4329 25.4517C22.7508 25.2954 23.0815 25.2954 23.3967 25.4517C23.6505 25.5773 23.8402 25.5209 24.0273 25.3287C24.2529 25.098 24.5323 24.9775 24.9117 24.9929H24.9065ZM23.5634 26.2694C23.8197 26.8846 24.0632 27.4742 24.3144 28.0766C24.3452 28.0432 24.3529 28.0381 24.358 28.033C24.4759 27.8125 24.5938 27.5895 24.7143 27.3691C24.9194 26.9923 25.1731 26.8872 25.5833 27.0102C25.8345 27.0846 26.0857 27.164 26.3753 27.2537C26.1292 26.6616 25.8985 26.1131 25.696 25.6235C25.391 25.6645 25.1372 25.6901 24.886 25.7311C24.7784 25.7491 24.6451 25.767 24.5759 25.8388C24.299 26.1131 23.9863 26.2874 23.5634 26.272V26.2694ZM21.4948 28.1022C21.7562 27.4665 21.9997 26.8769 22.2535 26.2694C21.8511 26.2797 21.5435 26.1336 21.2795 25.8644C21.2077 25.7901 21.0846 25.7491 20.9795 25.7311C20.7053 25.685 20.4284 25.6594 20.1208 25.6235C19.9132 26.1259 19.6902 26.6693 19.4492 27.2537C19.7466 27.1615 19.985 27.0846 20.2234 27.0128C20.6489 26.8846 20.8975 26.9872 21.1103 27.3742C21.2333 27.5998 21.3538 27.8279 21.4973 28.0996L21.4948 28.1022ZM22.9097 26.636C22.679 27.1922 22.4637 27.7126 22.2381 28.256H23.5787C23.3583 27.7203 23.143 27.1999 22.9097 26.636Z" fill="white"/>
<path d="M14.8077 12.6376C13.0416 12.6376 11.278 12.6376 9.51191 12.6376C9.44783 12.6376 9.38118 12.6376 9.3171 12.6376C9.06077 12.6247 8.88903 12.4761 8.8839 12.2633C8.87877 12.0531 9.05308 11.8968 9.30685 11.884C9.37093 11.8814 9.43757 11.884 9.50166 11.884C13.0647 11.884 16.6277 11.884 20.1881 11.884C20.2932 11.884 20.4009 11.884 20.5034 11.907C20.6854 11.9455 20.811 12.0788 20.7777 12.2531C20.752 12.3812 20.6393 12.512 20.5316 12.5991C20.4624 12.6529 20.3291 12.6401 20.2266 12.6401C18.422 12.6401 16.6149 12.6401 14.8103 12.6401L14.8077 12.6376Z" fill="white"/>
<path d="M14.8606 14.4468C16.6754 14.4468 18.4877 14.4468 20.3025 14.4494C20.4127 14.4494 20.5614 14.4545 20.6204 14.5186C20.7075 14.6134 20.7896 14.78 20.7639 14.8928C20.7383 15.0031 20.5819 15.0876 20.4717 15.1722C20.4409 15.1953 20.3769 15.1774 20.3282 15.1774C16.6677 15.1774 13.0073 15.1774 9.34948 15.1774C9.17518 15.1774 9.006 15.1569 8.94192 14.9825C8.90347 14.8749 8.89321 14.6903 8.9573 14.6262C9.05727 14.5263 9.22901 14.4519 9.37255 14.4494C11.2028 14.4391 13.033 14.4417 14.8632 14.4417L14.8606 14.4468Z" fill="white"/>
<path d="M12.0437 16.9961C12.9127 16.9961 13.7842 16.9961 14.6532 16.9961C14.7429 16.9961 14.8326 16.9961 14.9198 17.0166C15.1095 17.0627 15.2171 17.1986 15.2094 17.3883C15.2043 17.5651 15.0992 17.6933 14.9172 17.7318C14.8301 17.7497 14.7404 17.7523 14.6506 17.7523C12.9204 17.7523 11.1876 17.7523 9.45736 17.7523C9.44198 17.7523 9.42404 17.7523 9.40866 17.7523C9.07799 17.7497 8.88574 17.6087 8.88574 17.3729C8.88574 17.1345 9.07799 16.9961 9.41122 16.9961C10.2879 16.9961 11.1671 16.9961 12.0437 16.9961Z" fill="white"/>
<path d="M13.0028 25.6269C12.7695 25.5218 12.5234 25.4423 12.3056 25.309C11.9108 25.0706 11.7391 25.0578 11.3494 25.3167C10.8163 25.673 10.2754 25.6653 9.72943 25.3167C9.58588 25.2244 9.40901 25.1706 9.2424 25.127C9.01426 25.0681 8.8579 24.904 8.8861 24.7066C8.91429 24.4939 9.11423 24.3298 9.35006 24.3862C9.5987 24.4426 9.8499 24.5272 10.0678 24.6554C10.4548 24.8809 10.6343 24.8989 11.006 24.6502C11.5519 24.2837 12.0928 24.2888 12.6439 24.6425C12.7823 24.7323 12.9464 24.7963 13.1079 24.8348C13.3616 24.8963 13.4847 25.0117 13.4693 25.2372C13.4539 25.4602 13.2899 25.5858 13.0002 25.6269H13.0028Z" fill="white"/>
<path d="M19.7646 21.1325C19.7698 19.392 21.177 18.0002 22.9252 18.0078C24.676 18.013 26.0704 19.4279 26.0653 21.1838C26.0576 22.9012 24.617 24.3162 22.8868 24.3085C21.1617 24.2982 19.7621 22.8756 19.7672 21.1325H19.7646ZM22.9073 23.56C24.2274 23.56 25.3117 22.4834 25.3219 21.1607C25.3296 19.8483 24.2376 18.7486 22.9227 18.7461C21.5897 18.7435 20.4952 19.8304 20.4978 21.1582C20.4978 22.4757 21.5872 23.56 22.9073 23.5625V23.56Z" fill="white"/>
</g>
<defs>
<clipPath id="clip0_4150_497">
<rect width="23.0801" height="25" fill="white" transform="translate(5 4)"/>
</clipPath>
</defs>
</svg>
