<svg width="34" height="34" viewBox="0 0 34 34" fill="none" xmlns="http://www.w3.org/2000/svg">
<rect width="34" height="34" fill="#356875"/>
<g clip-path="url(#clip0_4150_481)">
<path d="M18.6223 4.00047C18.8319 4.13206 19.0658 4.23684 19.2437 4.40255C19.3802 4.52683 19.5044 4.72178 19.5288 4.89724C19.5678 5.19698 19.7262 5.28714 19.9869 5.37974C23.2743 6.56651 25.4821 8.78163 26.396 12.1981C26.5202 12.666 26.5568 13.1558 26.6348 13.6359C26.6518 13.748 26.664 13.8601 26.6811 14.0014C26.8541 14.0014 27.0174 13.9941 27.1758 14.0014C27.824 14.038 28.3333 14.5644 28.3382 15.215C28.3455 15.9875 28.3113 16.7624 28.3479 17.5325C28.382 18.2221 28.0287 18.9045 27.0929 19.0141C27.0929 19.1701 27.0929 19.3309 27.0929 19.4917C27.0953 19.8865 26.9248 20.1716 26.5714 20.3568C26.1986 20.5518 25.7575 20.698 25.4894 20.9929C25.2287 21.2829 25.1873 21.758 24.9826 22.1138C24.5902 22.7986 24.5561 23.4712 24.8778 24.1852C25.0898 24.6579 24.9728 25.0576 24.5829 25.4085C24.1686 25.7862 23.7836 26.1956 23.3888 26.5953C23.1159 26.8706 22.804 26.9535 22.4311 26.8389C22.0973 26.7366 21.7659 26.6294 21.4271 26.5465C21.3029 26.5173 21.1493 26.5148 21.0348 26.5611C20.4158 26.8048 19.8017 27.0631 19.1925 27.3263C19.1048 27.3653 19.0171 27.4433 18.9683 27.5237C18.7831 27.8381 18.6101 28.1622 18.4395 28.4838C18.2592 28.825 17.9887 28.9956 17.5939 28.9907C16.9676 28.981 16.3414 28.9834 15.7151 28.9907C15.352 28.9956 15.0937 28.8348 14.9182 28.5253C14.8695 28.44 14.811 28.3596 14.7793 28.2694C14.5381 27.5846 14.0629 27.1752 13.3635 26.9803C12.9907 26.8779 12.6446 26.6854 12.2791 26.549C12.1816 26.5124 12.0573 26.5075 11.955 26.5343C11.5773 26.6294 11.2069 26.7439 10.8316 26.8536C10.5123 26.9462 10.2345 26.8706 10.0006 26.644C9.53027 26.1834 9.06727 25.7131 8.60182 25.2477C8.35326 24.9991 8.30208 24.6994 8.39712 24.3704C8.49947 24.0122 8.61401 23.6564 8.70661 23.2957C8.73341 23.1958 8.73341 23.0691 8.69442 22.9741C8.44586 22.3478 8.18755 21.7264 7.92193 21.1074C7.8805 21.0124 7.79278 20.9222 7.70505 20.8686C7.40531 20.6907 7.09826 20.5201 6.78634 20.3641C6.40863 20.1765 6.23317 19.8792 6.24292 19.4625C6.24779 19.3114 6.24292 19.1579 6.24292 19.0068C5.59958 18.9313 5.18531 18.6218 5.02935 18.0126C5.00254 17.9126 5.00011 17.803 5.00011 17.6982C5.00011 16.8916 4.99767 16.0874 5.00011 15.2808C5.00011 14.5327 5.50942 14.0112 6.26241 13.9868C6.39157 13.9819 6.51829 13.9868 6.63769 13.9868C6.72542 13.4385 6.77903 12.9122 6.896 12.4004C7.53203 9.60774 9.15743 7.5437 11.626 6.14005C12.2352 5.79401 12.9151 5.57713 13.5633 5.29689C13.6291 5.26765 13.7339 5.21891 13.7388 5.17017C13.807 4.55851 14.1725 4.20029 14.7184 3.98828C16.0197 3.98828 17.3234 3.98828 18.6247 3.98828L18.6223 4.00047ZM7.54909 13.9819H25.8135C25.738 12.6441 25.3773 11.411 24.7291 10.2608C24.0785 9.10574 23.1963 8.16998 22.0851 7.37311C22.0851 8.58668 22.0851 9.74177 22.0851 10.8968C22.0851 11.3014 21.934 11.5158 21.6587 11.5085C21.3882 11.5012 21.2517 11.2989 21.2493 10.9042C21.2493 9.61748 21.2493 8.33325 21.2444 7.04657C21.2444 6.96372 21.2103 6.83213 21.1542 6.80288C20.6547 6.56163 20.1453 6.33744 19.5922 6.08888C19.5922 6.25215 19.5922 6.33987 19.5922 6.4276C19.5922 6.85893 19.597 7.29026 19.5897 7.72159C19.5849 7.98965 19.4118 8.1651 19.1706 8.16754C18.9367 8.16754 18.7734 8.01158 18.7466 7.75327C18.7393 7.68016 18.7417 7.60705 18.7417 7.53395C18.7417 6.8175 18.7417 6.10106 18.7417 5.38462C18.7417 4.96791 18.6028 4.83388 18.1812 4.83388C17.2528 4.83388 16.3267 4.83388 15.3983 4.83388C14.6355 4.83388 14.5917 4.88018 14.5917 5.65267C14.5917 6.32038 14.5917 6.98809 14.5917 7.65336C14.5917 7.87268 14.5356 8.06032 14.309 8.14317C14.0166 8.25039 13.7461 8.04082 13.7436 7.69966C13.7388 7.18791 13.7436 6.67617 13.7436 6.09619C13.2392 6.31794 12.7762 6.52752 12.3108 6.7249C12.1402 6.79801 12.0793 6.89792 12.0817 7.09044C12.0939 8.36736 12.089 9.64429 12.0866 10.9237C12.0866 11.0358 12.0866 11.1576 12.0451 11.2575C11.9672 11.4378 11.8088 11.5256 11.6089 11.4963C11.3896 11.4646 11.2532 11.2892 11.2532 11.0431C11.2532 9.91966 11.2532 8.79625 11.2532 7.67529C11.2532 7.59 11.2532 7.50471 11.2532 7.40479C9.3207 8.43072 7.37607 11.896 7.55396 13.9795L7.54909 13.9819ZM22.1217 19.0141C21.5514 22.0456 19.831 23.7977 16.6898 24.0122C13.5243 23.8197 11.7868 22.0675 11.2117 19.0141H7.12263C7.03978 19.5356 7.04222 19.5405 7.45892 19.772C7.75135 19.9328 8.04865 20.0815 8.33133 20.2569C8.44099 20.3252 8.55065 20.4348 8.60182 20.5518C8.93568 21.3267 9.25978 22.1065 9.56926 22.8912C9.618 23.0155 9.61557 23.1787 9.58145 23.3103C9.48397 23.7027 9.36213 24.0901 9.24272 24.4776C9.20617 24.597 9.20861 24.6799 9.30852 24.7773C9.70086 25.1551 10.0786 25.5498 10.4733 25.9251C10.5391 25.9885 10.678 26.025 10.7658 26.0031C11.1508 25.9081 11.5261 25.7716 11.9111 25.679C12.0671 25.6424 12.2571 25.6424 12.4009 25.6985C13.1637 25.9958 13.9191 26.3126 14.6697 26.6391C14.7988 26.6952 14.9255 26.8146 15.0011 26.9364C15.2082 27.2752 15.3934 27.6285 15.5762 27.9818C15.6444 28.1134 15.7175 28.1719 15.8735 28.1695C16.4023 28.1597 16.9311 28.1597 17.4599 28.1695C17.6159 28.1719 17.6914 28.111 17.7572 27.9818C17.9351 27.6358 18.113 27.2873 18.3201 26.9584C18.403 26.8243 18.5394 26.6927 18.6832 26.6294C19.4265 26.3053 20.177 25.9958 20.9325 25.6985C21.0714 25.6449 21.2541 25.6351 21.4003 25.6717C21.7854 25.7618 22.1655 25.8837 22.5457 26.0031C22.6748 26.0445 22.7699 26.0397 22.8698 25.9324C23.2499 25.5401 23.6423 25.1624 24.0176 24.7676C24.0736 24.7091 24.1053 24.58 24.0858 24.502C23.9859 24.1096 23.8494 23.727 23.7544 23.3323C23.7203 23.1861 23.7203 23.0057 23.7739 22.8668C24.0736 22.1041 24.388 21.3462 24.7169 20.5956C24.7803 20.4519 24.9119 20.3178 25.0484 20.2326C25.3871 20.023 25.7453 19.85 26.0913 19.6526C26.1523 19.6185 26.2254 19.5454 26.2327 19.4844C26.2522 19.3358 26.24 19.1798 26.24 19.0141H22.1217ZM16.6801 14.8373C13.2465 14.8373 9.81295 14.8373 6.37938 14.8373C5.97973 14.8373 5.83596 14.9786 5.83596 15.3807C5.83596 16.1215 5.83596 16.8623 5.83596 17.6007C5.83596 18.0199 5.9773 18.1588 6.39157 18.1588C13.2417 18.1588 20.0917 18.1588 26.9443 18.1588C27.3585 18.1588 27.4999 18.0199 27.4999 17.6007C27.4999 16.877 27.4999 16.1532 27.4999 15.4295C27.4999 14.9616 27.3731 14.8349 26.9077 14.8349C23.4985 14.8349 20.0893 14.8349 16.6801 14.8349V14.8373ZM21.1956 19.0165H12.1402C12.2255 21.0148 14.0604 23.1739 16.6947 23.1593C19.3509 23.1422 21.1225 20.9466 21.1956 19.0165Z" fill="white"/>
</g>
<defs>
<clipPath id="clip0_4150_481">
<rect width="23.3478" height="25" fill="white" transform="translate(5 4)"/>
</clipPath>
</defs>
</svg>
